<svg id="Vrstva_2" data-name="Vrstva 2" xmlns="http://www.w3.org/2000/svg" viewBox="0 0 1280 1024"><defs><style>.cls-1{fill:#fff;}</style></defs><title>404cat</title><path d="M498.58,636.74c.46,1.1.93,2.2,1.36,3.3,1.34,3.4,2.66,6.8,4,10.19-4.29.6-8.81,2.32-12.81,1.5-4.75-1-9-4.13-13.53-6.34l-1.47,2.82c5.06,2.58,9.94,5.67,15.23,7.62,18.9,7,38,13.44,56.89,20.37,2.41.88,4.38,3.18,6.36,5,17.53,16.44,28.92,37.07,39,58.44,8.6,18.3,8.13,37.12-1.49,54.76-6.51,11.92-6.73,24.58-7.58,37.25-.57,8.47,5.42,14.33,13.81,12.64,14.25-2.87,30.13-4.31,41.85-11.79,30.86-19.72,63.65-35.76,95-54.37,16-9.48,29.37-23.84,42.37-37.48,14.71-15.44,26.6-33.61,41.62-48.69,26.73-26.83,47.18-57.94,66.33-90.17,15.73-26.48,30.42-53.65,47.53-79.21,9.49-14.19,22.62-26.06,34.76-38.33,20.91-21.15,43.8-40.34,59.74-66.11,7.83-12.65,17.52-24.14,26.32-36.2a32.33,32.33,0,0,0,2.11-4.45c-4-1.31-7.6-2.47-11.19-3.69-15-5.11-30.13-9.76-44.82-15.59-5.42-2.15-9.57-7.33-14.59-10.69-15.53-10.39-21.13-25.24-21.63-43.4-.37-13.55-4-27.06-3.83-40.57.08-7.54,4-15.52,7.75-22.42,4.12-7.51,4-9.58-3.93-12.89-18.26-7.57-36-16.6-54.73-22.75-20.76-6.82-41.46-15.64-64.39-12.37-12.05,1.72-24.19,2.86-36.33,3.86-1.7.14-4.23-1.65-5.31-3.26q-9.34-13.92-18.12-28.21c-5.9-9.62-11.47-19.45-17.27-29.14a32.46,32.46,0,0,0-6.94-8.52c13,21.53,8.42,44.68,7.11,67.37-.34,5.8-9.22,11.44-14.6,9.71-1.85-.6-4.17-3.85-4.06-5.76.47-8.11,1.9-16.16,2.71-24.25a21.35,21.35,0,0,0-1.68-11.06c-.92,1.91-1.72,3.88-2.77,5.71-7.51,13.16-14.06,27-23,39.11-4.75,6.4-14.19,9.09-20.77,14.38-13.87,11.16-27.33,22.84-40.76,34.53-2,1.71-3.11,4.55-4.22,7.05-3.9,8.82-1.85,13.36,7.16,17.15,2.06.86,3.76,2.56,5.63,3.87-.08,1.16-.17,2.31-.25,3.47-4.95.29-9.91.47-14.85.94a48.27,48.27,0,0,0-6.51,1.51c.59,2.32.47,5.35,1.92,6.81,3.76,3.81,2.27,6.36-.93,9.13-1.78,1.53-5,3.26-4.91,4.81.45,12.71-1.17,26.36,3,37.9,9,25.18,24.35,47.09,44.46,65.06,8.77,7.83,18.78,14.26,28,21.65,16.25,13,35.4,20.19,54.67,26.89,17.45,6.07,35.48,9,54,6.37,13.3-1.86,26.54-4.41,39.9-5.62,5-.45,10.33,2,16.94,3.44-8.18,12.24-18.43,14.45-28.75,14.93-21.57,1-43.19,1.56-64.77,1.29-7.76-.1-15.7-2.44-23.18-4.9-25.48-8.36-49.84-19.42-71-36-10.08-7.91-17.7-18.87-27.39-27.36-10.87-9.52-20.59-19.61-26.69-32.88-2.75-6-5.82-11.78-8.86-17.89-15.63,10.43-30.83,20.92-46.39,30.87-17.59,11.24-35.14,22.66-53.4,32.74-12.19,6.74-25.5,11.49-38.46,16.77-35.62,14.49-71.21,29-104.84,47.95-8.3,4.68-18.05,6.79-27.75,10.31,9.45,4.33,18.33,7.79,26.57,12.4,5.14,2.87,11.7,6.6,13.47,11.46,5.17,14.15,10.21,28.88,11.62,43.74,1.49,15.62-10.35,26.69-26.19,29-19.12,2.81-36,.4-49.58-16-17.19-20.64-40.55-24.17-65.91-20C254,568,239,580.05,226.72,597.05,222,603.6,215.41,609,209.07,614.14c-10.33,8.4-21.06,16.33-31.81,24.18-23.15,16.9-46.42,33.61-69.64,50.4-.25.18-.5.48-.76.49-4.56.27-9.12.5-13.68.73,1.76-4.82,2.08-11.63,5.53-14.12,18.77-13.54,38.66-25.51,57.46-39,13.1-9.42,24.49-21.26,37.68-30.53,14.32-10,24.38-20.29,20.09-40.1-2.26-10.45,3.22-20.66,10.14-29.54,10.36-13.29,20-27.1,35.49-35.21,2.14-1.12,4-3.63,6.12-3.8,19-1.5,38.09-2.54,57.13-3.9,10.17-.72,20.45-1.1,30.46-2.89,32-5.71,52.81-30.09,78.12-47.12,19.91-13.39,40.39-26.68,62.26-36.27,25.85-11.34,53.56-18.4,80.3-27.77,17.73-6.21,35.26-13,52.65-20.14,2-.81,3.6-5.46,3.41-8.18-.91-12.66-2.93-25.25-3.7-37.92-.39-6.46-3.35-7.67-9-8.74-14.35-2.71-25.71,3.82-36.79,10.89-5.28,3.37-9.1,3.51-12.24-1.76s.94-7,4.66-9.81c14.9-11.13,31.21-16.16,49.84-14.44,2.76.25,5.82-2.82,8.75-4.36-3-1.39-5.84-3.72-8.91-4-18.22-1.81-36.49-3.3-54.76-4.57-6.21-.44-9-2.91-8-9.23,1-6.64,5.1-7,10.75-6.42,20.66,2,41.36,3.78,62.09,4.95,2.88.16,6.51-3.07,8.88-5.59,8.44-9,15.7-19.22,24.87-27.34,14.57-12.9,30.75-24,45.43-36.76,13.62-11.86,18.78-28.4,23.74-45.44,3.92-13.44,3.36-28.42,13.91-40.11,9.65-10.7,19.9-10.75,26.91,2q11.21,20.44,21.88,41.18c3.06,5.9,7.15,11.85,8,18.16,1.29,9.32,6.81,8.55,13.08,8.09,14.91-1.11,30.28-5,44.64-2.69,21.43,3.48,42.56,10.23,63.07,17.66,20.05,7.27,39.3,16.85,58.61,26a53.49,53.49,0,0,1,15.17,11.4c7.91,8.29,14.82,17.53,22.62,25.94,1.63,1.76,5.49,2.71,8,2.22,19.76-3.88,39.53-7.78,59.08-12.54,10.94-2.67,21.32-7.58,32.23-10.4,11.52-3,17.83,3.2,17.28,14.7-.78,16.52-5,31.65-14.16,45.67-4.54,7-7,15.31-11,22.71-2.07,3.84-5.33,7.09-8.25,10.44-15.54,17.88-25.1,39.51-37.5,59.36-3.36,5.39-8.09,9.92-12,15-10.9,13.86-23.17,26.92-32.23,41.9-13.35,22.05-34.78,35.28-52.11,52.9-10.79,11-19.65,24-28.45,36.72-8.51,12.31-15.91,25.4-23.64,38.24-11.24,18.69-22.11,37.61-33.59,56.15-6.73,10.86-14.24,21.24-21.56,31.73-5.75,8.23-11.74,16.3-17.65,24.42a56.41,56.41,0,0,1-5,6.4c-8.28,8.44-16.85,16.6-25,25.16-14.85,15.56-29.39,31.41-44.24,47-4.62,4.84-9.71,9.26-14.79,13.64-25.3,21.78-56.64,33.48-84.89,50.35A316,316,0,0,1,625.79,854c-11.34,4.37-24.09,5.72-36.36,6.74-4.48.37-9.25-4.38-14.09-6.28-3.1-1.22-6.9-2.78-9.81-2a96,96,0,0,0-41.7,23.25c-9.45,8.86-20.85,15.81-32,22.64-20.27,12.44-41.2,23.82-61.41,36.36-8.46,5.24-15.73,12.37-23.63,18.54-2.36,1.85-4.95,4.57-7.54,4.69-3.76.17-7.61-1.65-11.43-2.62,1.09-3.72,1-8.94,3.47-10.89a260,260,0,0,1,30.89-21.36,807.35,807.35,0,0,0,95.5-64.68c12-9.41,25.62-17.86,41.93-19.69,2.48-.27,6.53-4.22,6.51-6.43-.19-17,5.84-32,12.24-47.38,7-16.72,4.11-33.57-4.75-49.07-5.88-10.29-12.72-20-19.24-29.94C542.23,687.4,521.93,683,503,676.63c-8.92-3-18.3-4.67-27.3-7.49-12.65-4-21.72-21.34-19.29-37.52a69.3,69.3,0,0,1,5.82-19.21c1.62-3.42,5.55-7.33,9-8,26.3-5.27,52.84-5.61,78.79,1.42,17.91,4.84,32.23,16,44.49,30.09,4.44,5.11,11.41,8,17.08,12.06,20.28,14.63,36.35,32.52,42.37,57.52,1.7,7,4.69,5.78,9,3.11,35.92-22.37,68.91-48.33,97.41-79.75,4.3-4.74,9.28-8.54,14.47-2.08,4.59,5.71,2.21,11.26-2.93,16-6.19,5.77-11.76,12.21-18.07,17.82C750,664,745,666,741.09,669.2c-12.44,10.36-24.3,21.44-37,31.41-6.6,5.16-14.6,8.51-21.91,12.78-5.51,3.23-12.14,5.62-16,10.28-2.89,3.5-2.95,10-2.82,15.17.15,6.57,3.08,13.28,2.27,19.6-.54,4.21-5.52,7.85-8.51,11.75-3-3.32-9-7-8.57-9.91,1.38-10.42-.9-18.73-6.78-27.46-3.48-5.17-3.43-12.78-4.76-19.33-3.11-15.36-9.87-28.49-22-38.86-14.62-12.49-28.18-26.33-43.46-37.93s-32.09-21.22-53-17.61c-4.31.74-9-.63-16.37-1.28,3.39,3.33,4.8,5.38,6.75,6.51,5.55,3.24,7.07,7.93,4,13.14-3.21,5.48-7.88,2.75-12,.62-.82-.42-1.66-.8-2.52-1.17a133.33,133.33,0,0,1-10.8-7.94c-2.12-1.85-3.54-4.5-6.4-8.27a18.31,18.31,0,0,0-4.75,3.87c-.62.79.67,4.6,1.87,5.09C484.9,632.35,491.78,634.44,498.58,636.74ZM379.22,581.13C375.4,579,371,577.51,368,574.55c-2.69-2.66-5.68-7.36-5-10.37.58-2.58,5.95-4.92,9.57-5.74,3.15-.7,6.81.88,11.19,1.62-12.5-12.5-12.8-12.95-10.73-14.32,3-2,6.75-4.88,9.73-4.43,4.61.69,8.83,3.87,14,6.38-.86-9.33-8.21-13.87-14.42-17.35-16.14-9-33.25-15.86-52.46-15.34-3.42.09-7.53-1.82-10.23-4.1-5.29-4.49-9.76-4.59-15.59-.93-3.34,2.09-8.12,3.46-11.93,2.91-13.24-1.92-25.22,1-34.68,9.88-7.69,7.22-14,16.06-20.13,24.71-3.33,4.67-5.11,10.44-7.59,15.71l2.15,2.28c4.1-2,9-3.23,12.14-6.23,9.24-8.75,20.71-12.24,32.51-13.3,33.38-3,61.85,8,84.8,32.66C366.24,583.92,372.15,584.1,379.22,581.13ZM534.55,412.86l-1.21-2.7c-27.86,9.17-56.22,17.25-78.88,37.91Z"/><path d="M757.62,356.47c-4.78-1-9.71-1.51-14.3-3.06-11.69-3.93-21.19,8.58-17.53,19,2.41,6.84,3.63,14.1,5.39,21.17,1.37,5.48-1.5,8.87-6.37,8.63-3.53-.18-8.65-2.32-10-5.08-3.31-6.75-4.51-14.51-7.28-21.58-1.08-2.73-3.7-5.82-6.33-6.8a246.74,246.74,0,0,0-23.69-7c-7.59-2-12.2-7.58-9.83-13.43,2.8-6.89,9.24-7.63,15.44-6.41,4.4.86,8.61,3.09,12.71,5.11,8.18,4.05,15.77,1.22,20.87-4.32,2.6-2.83,2.33-10.46.52-14.72-3.16-7.47-1.43-13.35,4.46-16.56,6.32-3.44,11.93.61,14.81,6.77,4.66,9.94,11.34,16.49,23,16.23a3.36,3.36,0,0,1,1.77.39c5.43,3.19,15.85,3.41,13.5,11.8-1.37,4.88-10.33,7.64-15.88,11.36Z"/><path d="M900.29,485.54c-1.68-23.15-11.44-41.93-30.75-55.13-3.71-2.54-10.42-3-7.83-10.06,1.58-4.32,12.07-5.82,17.17-2.22,16.79,11.87,30.53,26.29,35.63,47a137.63,137.63,0,0,1,3.71,23.35c.36,5.06-10.48,11.92-13.93,8.82C901.61,494.86,901.53,489.55,900.29,485.54Z"/><path d="M861.33,389.23c4.06,1.09,6,1.22,7.54,2.08,16.73,9.32,34.07,17.77,49.78,28.57,7.89,5.42,13.55,14.75,18.58,23.28,1.41,2.4-2.54,8.52-5.05,12.24-.55.81-7.07-.43-8.2-2.31-12.79-21.32-33.48-32.57-54.09-44.27-4.57-2.6-7.83-7.94-10.82-12.58C858.23,394.94,860.49,391.63,861.33,389.23Z"/><path d="M727.08,264c-6.77.28-11.59-2.77-12.45-9.46-.83-6.53,3.41-9.62,9.6-11.15,3.68-.9,7.07-3.25,10.41-5.26,5.28-3.17,10.2-3.83,14.85,1.06s4.84,10.58-.09,14.46c-6.38,5-13.92,8.52-21,12.68C728,265.57,727.54,264.79,727.08,264Z"/><path d="M855.09,306.79c4.38,3.52,10.17,6.29,12.56,10.84,1.23,2.35-2.9,8.49-5.86,11.78s-7.38,5.32-11.35,7.57c-6,3.39-11.52,2.75-14.71-3.7-3.11-6.25-3.05-12.54,3.73-16.89C844.23,313.33,849.12,310.45,855.09,306.79Z"/><path class="cls-1" d="M379.22,581.13c-7.07,3-13,2.79-17.93-2.54-23-24.67-51.42-35.63-84.8-32.66-11.8,1.06-23.27,4.55-32.51,13.3-3.17,3-8,4.21-12.14,6.23l-2.15-2.28c2.48-5.27,4.26-11,7.59-15.71,6.16-8.65,12.44-17.49,20.13-24.71,9.46-8.89,21.44-11.8,34.68-9.88,3.81.55,8.59-.82,11.93-2.91,5.83-3.66,10.3-3.56,15.59.93,2.7,2.28,6.81,4.19,10.23,4.1,19.21-.52,36.32,6.3,52.46,15.34,6.21,3.48,13.56,8,14.42,17.35-5.18-2.51-9.4-5.69-14-6.38-3-.45-6.72,2.44-9.73,4.43-2.07,1.37-1.77,1.82,10.73,14.32-4.38-.74-8-2.32-11.19-1.62-3.62.82-9,3.16-9.57,5.74-.68,3,2.31,7.71,5,10.37C371,577.51,375.4,579,379.22,581.13Z"/><path class="cls-1" d="M534.55,412.86l-80.09,35.21c22.66-20.66,51-28.74,78.88-37.91Z"/><path class="cls-1" d="M498.58,636.74c-6.8-2.3-13.68-4.39-20.32-7.08-1.2-.49-2.49-4.3-1.87-5.09a18.31,18.31,0,0,1,4.75-3.87c2.86,3.77,4.28,6.42,6.4,8.27a133.33,133.33,0,0,0,10.8,7.94Z"/></svg>