<svg id="Vrstva_1" data-name="Vrstva 1" xmlns="http://www.w3.org/2000/svg" viewBox="0 0 1280 1024"><title>loading cat</title><path d="M746.36,272.35c23.86-23.54,53.84-27,83.24-28.44,28.52-1.4,57.31,1.2,85.9,3.23,8.7.61,17.38,4.54,25.57,8.1,7.07,3.06,11.58,1.91,16.51-3.92,15.09-17.83,30.18-35.72,46.3-52.61a71.44,71.44,0,0,1,23.59-15.88c13.1-5.47,21.49-1.07,26.53,12.52,2.53,6.8,4.57,14.2,4.73,21.38.64,28.72,3.21,57.79-.27,86.07-3,24.22,1.34,47,3.88,70.24,3.51,32.2,8.24,64.28,11.64,96.49,2.66,25.13,6.38,50.46,5.52,75.56-1.21,35.26-5.45,70.5-10,105.55-2.11,16.43-8.16,32.32-11.82,48.59a245,245,0,0,0-5.56,33.42c-1.09,13.24-8.33,20.28-21.11,21.06a163.5,163.5,0,0,0-33.25,5.48c-23.39,6.39-46.95,9.8-71.18,7.9-2.33-.18-4.68-.75-7-.57-21.46,1.69-42.16-2.64-63.17-6.24-14.77-2.53-30.35-.19-45.56-.4-37.29-.52-71.89-11.47-106.65-24.35-21.28-7.89-40.72-17.36-58.78-30.68-8.8-6.49-10.29-11.59-5.87-21.14,3.1-6.72,4.25-14.31,6.94-21.24,4-10.2,6.83-21.43,13.16-30,22.9-31,37.55-66.08,52.55-101,1.09-2.53-1.13-8.2-3.61-10.22A189.87,189.87,0,0,0,682.44,503c-3.5-2-9.46-2-13.28-.44-6,2.48-11.26,7-16.82,10.74-4.94,3.29-9.94,5.08-13.6-1.4-3.55-6.27-2.08-11.44,4.34-15.22,4.87-2.87,9.93-5.68,14.07-9.43,2.13-1.92,4-6.39,3.2-8.73-1.07-3.05-4.77-7-7.59-7.24-6.14-.46-12.45,1.82-18.69,1.81-4.72,0-9.43-1.82-14.15-2.83,3-5,5.11-11.06,9.31-14.67,3.07-2.64,8.87-2.48,13.5-2.81,6.74-.49,9.27-3.79,6.93-9.87-8.19-21.27-1.79-41.15,4.19-61.58a85,85,0,0,0,2.78-32.41c-2.18-19.84-6.33-39.48-10.12-59.11-3.71-19.3-8.44-38.42-11.88-57.76-2.54-14.28-.93-27.91,10.44-38.9,4.46-4.32,8.59-5.77,14.23-2.68,20.54,11.22,40.51,22.4,53.83,43.39C721.93,247.71,734.68,259.07,746.36,272.35Zm292.21,62.9c-11.18,1.68-21.28,4.38-31.4,4.46-18.65.16-36.77-3.13-54.95-8.38-26-7.53-41.77-24.61-47.47-49.2-3-12.93-6.79-16.18-19.5-17.69-36.78-4.37-72.69-2.7-107.52,9.95-10.14,3.68-19.54,10-28.42,16.31-6.51,4.63-11,3.67-15.07-2-4.19-5.88-7.19-12.65-11.57-18.36-8.74-11.38-18.3-22.12-27.09-33.46-10.45-13.49-24.11-22.59-38.77-30.51-6.5,9.25-6.52,20.07-1.38,25.87,12.37,14,24.72,28,36.17,42.74,3.07,4,3.95,10.47,3.84,15.76-.07,3.6-3.61,7.12-5.59,10.68-3.31-2.42-7.18-4.35-9.77-7.38-3.44-4-5.88-8.9-8.74-13.42-2.36,2.84-2.57,4.71-2.33,6.52,2.64,20.14,5,40.33,8.19,60.37,2,12.59,1.47,24.53-3.41,36.34-7.72,18.66-10.2,37.63-4.65,57.58,1.94,7,5.1,10.56,12,10.8,6.33.22,12.76-.49,19,.37,3,.42,5.56,3.51,8.33,5.39-2,2.74-3.4,6.77-6.06,7.91-3.78,1.61-8.46,1.1-12.76,1.5l-7.86.7.4,4.09c4-.65,8.07-2,12-1.75,5.77.42,13.89.13,16.61,3.59,4.69,6-2.06,9.64-7.23,12.41-1,.55-1.63,1.84-3.27,3.79,10.94,7,21.09,13.95,31.74,20.09,19.67,11.33,41.41,16,63.53,20.22,21.57,4.14,42.86,6.19,64.56,2.63,16.14-2.65,32.31-5.18,48.41-8.08,13.47-2.42,26.2-6.79,39.59-18.22-14.15-5.94-26.27-11.53-38.78-16.05-6.76-2.44-10.44-6.87-10-13.21.52-7.64,7.15-5.19,11.81-4.88,3.61.25,7.61.45,10.68,2.09,19.67,10.52,39.28,21.19,58.59,32.34a85.58,85.58,0,0,1,19,14.49c2.47,2.58,1.77,8.2,2.5,12.44-4.61.29-9.37,1.39-13.77.57-2.91-.54-5.5-3.65-7.9-5.95-6.83-6.55-13.4-6-21.79-1.94a282.29,282.29,0,0,1-42.68,16.67c-11.74,3.41-24.3,4-36.49,5.86-14.12,2.15-28.31,6.58-42.33,6.07-35-1.26-70.15-3.88-102.32-20.27-4.38-2.23-5.94-1.06-7.82,3.65-9.73,24.35-17.67,49.87-30.87,72.25-12.87,21.84-26.32,43-33.5,67.44-1.13,3.82-1,10.64,1.27,12.36a192.77,192.77,0,0,0,31.18,19.45c12.54,6,25.62,11.52,39,15,24,6.3,48.29,12.31,72.83,15.78,16.24,2.3,33.18-.78,49.74,0,10.86.51,21.69,3.2,32.37,5.64,8.16,1.86,11-.18,12.11-8.94,1.53-12.1,2.81-25.45,8.78-35.56,17.41-29.45,44.81-44.44,78.91-47.21,15.94-1.29,31.89-2.58,47.8-4.22,12.91-1.34,13.42-2.72,14.57-15.79,2.23-25.23,5.74-50.37,7.37-75.63,1.35-20.89,2.72-42.11.62-62.83-4.07-40.12-10.68-80-16-120C1041.17,362.76,1040,348.9,1038.57,335.25Z"/><path d="M380.4,664.5c8.39,5.61,6.3,12.16,1.34,17.33s-12.22,8.47-18.79,2.8c-6.35-5.47-10.29-4.14-16,1.06-5.26,4.82-12.19,7.8-18.74,11.8,0,9.88,1.63,20.77-.31,31-5.85,30.86-25.72,47.9-56.37,53-6.26,1-12.42,2.61-18.62,4-23.64,5.16-44.13-4.05-63.81-15-12.77-7.1-24.83-15.63-36.62-24.32-13.38-9.87-18.59-24.85-22.57-40.23s-8.47-30.8-6-47.3c1.51-10.06,5.8-17.44,15.39-20.08s14.39,4.84,19.43,11.21,9.91,13.51,15.86,19.24c10.32,9.94,15,10.37,27.69,3.71,10.26-5.4,19.45-12.82,32.29-12.26,2.29.1,5.3-6.55,7.24-10.45,6.63-13.29,10.52-28.46,23.56-37.46C293.68,593,326.15,596.3,349.48,622c6.57,7.22,12.94,8.34,21.08,6.7s17-5.24,22.12,4.75C397.52,642.92,391.84,657.27,380.4,664.5Zm-237.73,0c-.51,3.41-1.25,5.13-.91,6.61,2,8.54,3.88,17.13,6.48,25.5,2.53,8.15,4.27,17.23,9.16,23.83C171,738.71,190.21,750.71,210,761c20,10.45,41,3.52,61.78,0,23-3.86,40.19-24.84,37.64-50-.74-7.3-.64-14.69-1.34-22-1.26-13,.34-14.57,13.06-14.58,4.4,0,10-.66,13-3.36,9.4-8.67,6-35.79-4.63-42.88-17.14-11.44-41.18-10.64-57.36,2.11-2,1.56-4,3.77-4.73,6.08-3.22,10.47-5.92,21.09-8.89,31.63-3.28,11.65-11.26,16.26-22.91,15.91-6.59-.2-14.13,1.27-19.76,4.54-13.84,8-28.39,5.92-42.9,5.09-2.77-.16-5.73-3.11-8-5.39C157.77,680.89,150.91,673.32,142.67,664.5Z"/><path d="M1160.72,729.15c-6.63,22.16-10.31,49.51-29.7,63-21.38,14.86-43.92,31.55-71.64,35.7-8.54,1.27-16.82,4.76-25.35,5.38-7.76.57-15.76-1-23.51-2.46-1.64-.3-3.92-4.13-3.64-6s3.29-3.82,5.48-4.48c23.74-7.22,47.9-13.24,71.22-21.61,12.35-4.43,25.25-10.87,34.27-20,8.64-8.73,12.94-21.94,18.52-33.49,9.63-19.92,6.49-30.59-18.36-44.8-4.88-2.79-13.28-5.1-9.55-12.52,3.5-7,11.79-5,16.78-1.22a328.05,328.05,0,0,1,31.88,27.94C1159.88,717.36,1159.41,723.34,1160.72,729.15Z"/><path d="M564.6,707.35c-1.43-29,10.14-43.36,22.52-57,2.91-3.21,7.84-5.52,12.17-6.24,3.3-.54,7.12,2.1,10.72,3.32-1.64,2.89-2.7,6.38-5,8.58-21.66,20.86-30.83,34.5-15,65.8,3.6,7.09,6.75,14.58,11.43,20.91,9.43,12.76,25.22,13.79,38.59,19.27,9.2,3.77,18.43,7.5,27.33,11.9,4.81,2.38,7.84,6.53,4.35,12.35-3.35,5.6-7.73,6.24-13.65,3.7-17-7.32-34.33-13.85-51.18-21.46-6.45-2.91-13.6-6.71-17.57-12.18C576.84,739,566.27,720.47,564.6,707.35Z"/><path d="M175.14,809.35c-20.5-4.72-42.56-5.41-59.34-20.53-8.85-8-8.26-17.75.66-29.24,6.13-7.89,17.51-10.3,25.89-5.23,5.24,3.18,2.62,6.9-1,8.08-5.95,1.94-10.67,5.56-8.32,11.11,1.55,3.65,7.76,6.3,12.38,7.48,12.22,3.09,24.69,5.2,37.09,7.58,6.08,1.17,12.74,2.26,12.29,10.24-.41,7.17-6.18,9.75-12.65,10.47A65.35,65.35,0,0,1,175.14,809.35Z"/><path d="M338,742.68c18.91-.06,28.2,15.14,23.5,29.93-4.65,14.59-16.14,20.35-28,26.24a75.09,75.09,0,0,1-16.73,6.27c-3.61.82-7.7-.53-11.58-.9.91-4.22.41-10.27,3-12.27,6.17-4.74,13.94-7.34,20.82-11.23a57.09,57.09,0,0,0,12-8.54c5.24-5.14,6.85-9.55-2.71-12.77-3.54-1.2-7.12-6.83-7.57-10.79C330.46,746.48,336.81,743.6,338,742.68Z"/><path d="M712.22,779.28c17.84,3.58,32.8,6.54,47.74,9.61,5.19,1.07,10.9,1.43,15.34,3.94s10.33,7.32,10.25,11c-.16,6.81-7.35,10.43-13.44,7.65-20.15-9.24-42.38-7-63-12.92-3.38-1-8.13-8.59-7.12-10.89C703.8,783.62,709.53,781.3,712.22,779.28Z"/><path d="M227.39,817.83c-.89-.43-4.5-1.43-7-3.67-2.26-2-4.81-5.61-4.43-8.07.32-2,4.59-3.74,7.38-5a17.82,17.82,0,0,1,6.82-1.32c5.42-.13,12.07-2.12,12.66,6.78C243.32,814.23,239.06,818,227.39,817.83Z"/><path d="M764.62,441.05a82.41,82.41,0,0,1,8.14,4.57c7.83,5.45,15.52,6.53,24.37,1.86,5.54-2.93,12.3-7.51,18-.16,3.85,5-.89,15.41-8.52,20-3.43,2.07-6.92,4-10.4,6-7.38,4.23-8.44,13.25-1.85,18.79,4.07,3.43,9.19,5.68,12.94,9.37,2.64,2.59,3.77,6.73,5.57,10.17-5.63,2.89-7.69,13.16-17,8.27a57.86,57.86,0,0,1-6-3.65c-7.79-5.37-15.34-9.85-25.74-6-7.91,3-12.81-2.1-14.33-9.71s3.44-10.21,9.94-10.39c8-.23,10.55-6.26,10.77-12.06.15-3.91-3.28-8.34-6-11.87-3.16-4.14-8.31-7-10.73-11.4C749.57,447.29,754.43,440.67,764.62,441.05Z"/><path d="M909.55,452.73c14.34,1,29.8,1.15,44.91,3.54,5.62.88,10.88,6.5,15.31,10.94,1.4,1.4.63,7-1.09,8.89s-5.93,2.09-8.88,1.71q-25.21-3.27-50.33-7.29c-5.18-.82-10.53-1.95-15.17-4.24-2.23-1.09-4.11-5.26-4-7.93.08-1.77,3.81-4.21,6.28-4.81C900.41,452.6,904.56,453,909.55,452.73Z"/><path d="M700.51,413.28c1-20.63,6.08-24.76,19.38-19.79,1.23.45,2.75.79,3.52,1.7,7.61,8.89,0,17.75-.92,26.46-.24,2.32-10.13,6.55-11.6,5.28C705.84,422.57,702.54,416.16,700.51,413.28Z"/><path d="M864.81,417.78c-.43,1.7-.28,6.12-2.41,8.46-3.07,3.37-7.67,6.81-11.86,7.17-2.81.23-7.72-4.35-8.73-7.68a40.35,40.35,0,0,1-.87-17.44c1-6.23,4.75-10.89,12.39-10.19,7.31.68,10.44,4.94,11,11.77C864.44,411.86,864.55,413.84,864.81,417.78Z"/><path d="M328.58,645.57c-.11,7.82-7.08,16.43-13,14.22-5.47-2-11.32-6.91-13.77-12.07-2.27-4.77,10.69-17.67,16.22-17.9S328.7,637.21,328.58,645.57Z"/></svg>